<svg width="85" height="16" viewBox="0 0 85 16" fill="none" xmlns="http://www.w3.org/2000/svg">
<path d="M30.9645 12.0661V12.2225H27.8468V12.0661C28.3842 11.7229 28.6908 11.5992 28.6908 9.80262V6.83643C28.6908 5.44613 27.9846 4.85196 27.0935 4.85196C26.1106 4.85196 25.3584 5.58621 24.8061 6.92864V10.0664C24.8061 11.6132 25.2654 11.8174 25.7121 12.0649V12.2213H22.5933V12.0661C23.1318 11.7696 23.4384 11.6143 23.4384 9.80262V5.36675C23.4384 4.88348 23.3776 4.55546 22.7012 4.52394V4.29047L24.6212 3.83871L24.6832 3.88541V6.2119H24.7441C25.727 4.1037 26.7869 3.79085 27.7699 3.79085C29.2443 3.79085 30.0585 4.88464 30.0585 6.52358V10.0676C30.0585 11.6143 30.519 11.8163 30.9645 12.0661ZM1.76612 2.26048C1.76612 1.51105 2.35062 1.16668 3.14411 1.16668C3.8664 1.16668 4.57262 1.52622 5.04918 1.99432L5.14104 1.94763V0.546828C4.55022 0.178271 3.86821 -0.0112522 3.17511 0.000516617C1.80861 0.000516617 0.8555 0.796638 0.8555 2.01533C0.8555 2.88967 1.33205 3.77918 2.85243 4.15389V4.21693H0V4.79359H1.35158V9.80612C1.35158 11.6015 1.04497 11.7264 0.507558 12.0696V12.226H3.64018V12.0661C3.18085 11.8641 2.72152 11.6143 2.72152 10.0676V4.80643H5.31673V4.11887L4.74257 4.057C3.16478 3.88541 1.76612 3.49435 1.76612 2.26164V2.26048ZM20.075 2.76009C20.3622 2.76009 20.6376 2.64412 20.8407 2.43768C21.0438 2.23124 21.1578 1.95125 21.1578 1.6593C21.1578 1.36735 21.0438 1.08736 20.8407 0.880917C20.6376 0.674478 20.3622 0.558502 20.075 0.558502C19.9328 0.558502 19.792 0.586976 19.6606 0.642296C19.5292 0.697616 19.4098 0.778699 19.3093 0.880917C19.2087 0.983136 19.129 1.10449 19.0745 1.23804C19.0201 1.3716 18.9921 1.51474 18.9921 1.6593C18.9921 1.80386 19.0201 1.947 19.0745 2.08055C19.129 2.21411 19.2087 2.33546 19.3093 2.43768C19.4098 2.5399 19.5292 2.62098 19.6606 2.6763C19.792 2.73162 19.9328 2.76009 20.075 2.76009ZM15.2842 4.1037V4.33716C15.7757 4.52394 15.9594 4.82044 15.9594 5.24185C15.9594 5.6329 15.7906 6.1477 15.5758 6.80374L14.1163 11.1906H14.0853L12.658 6.81892C12.4283 6.13252 12.2423 5.53485 12.2423 5.10177C12.2423 4.72705 12.3961 4.46207 12.8268 4.33716V4.1037H10.3981L10.3831 4.2286L13.3688 12.9101C12.8463 14.2058 12.2009 14.5805 11.4947 14.5805C10.8494 14.5805 10.3579 14.4089 9.77223 13.7377L9.63443 13.7681V15.4747C10.0142 15.7341 10.4631 15.869 10.9205 15.8611C12.1343 15.8611 13.1632 15.142 13.9315 13.1599L17.4178 4.2286L17.4028 4.1037H15.2842ZM8.61816 10.0676V0.356554L8.51022 0.325035L6.75903 0.94956V1.10598C7.21836 1.44918 7.26659 2.05853 7.26659 2.88617V9.80262C7.26659 11.598 6.95884 11.7229 6.42142 12.0661V12.2225H9.54256V12.0661C9.08323 11.8163 8.61701 11.6143 8.61701 10.0676H8.61816ZM20.7215 10.0676V3.88073L20.6595 3.83404L18.5856 4.25545V4.47374C19.2746 4.52043 19.3538 4.86363 19.3538 5.36325V9.79912C19.3538 11.5945 19.0472 11.7194 18.5098 12.0626V12.219H21.6103V12.0661C21.1808 11.8163 20.7203 11.6143 20.7203 10.0676H20.7215ZM50.1185 12.2225H51.8697V4.1037H50.1174L50.1185 12.2225ZM74.463 3.8177C73.4192 3.8177 72.5108 4.33366 71.8678 5.33523V4.1037H70.2073V12.2225H71.9585V7.75745C71.9585 6.087 72.7267 5.33757 73.9244 5.33757C74.9993 5.33757 75.7365 5.88388 75.7365 7.38274V12.2225H77.4877V7.17962C77.4877 4.77491 76.0592 3.82237 74.4618 3.82237L74.463 3.8177ZM82.9411 7.6594L81.6056 7.25317C80.8017 7.0197 80.5457 6.65899 80.5457 6.15937C80.5457 5.51967 81.0521 5.19165 81.7594 5.19165C82.7424 5.19165 83.1719 5.801 83.3097 6.45704L84.8312 5.99011C84.6773 4.9757 83.6634 3.82003 81.8823 3.82003C80.2379 3.82003 78.8863 4.67919 78.8863 6.25626C78.8863 7.54033 79.6695 8.34812 80.9751 8.72284L82.3267 9.11273C83.0341 9.31584 83.2637 9.59717 83.2637 10.0816C83.2637 10.6431 82.7883 11.096 81.9432 11.096C80.8224 11.096 80.2379 10.44 80.1001 9.62869L78.5637 10.0653C78.8094 11.4241 79.8854 12.4863 81.8513 12.4863C83.6174 12.4863 85 11.5174 85 9.91002C84.9988 8.64696 84.1996 8.03878 82.9399 7.66407L82.9411 7.6594ZM68.8569 8.15902C68.8569 10.7657 67.1057 12.5143 64.6942 12.5143C62.2827 12.5143 60.5281 10.7703 60.5281 8.16368C60.5281 5.53952 62.2793 3.79085 64.6896 3.79085C67.0999 3.79085 68.8557 5.53952 68.8557 8.16368L68.8569 8.15902ZM67.1344 8.15902C67.1344 6.37883 66.2157 5.31656 64.6919 5.31656C63.1681 5.31656 62.2506 6.3835 62.2506 8.16368C62.2506 9.94387 63.1692 10.9886 64.6919 10.9886C66.2146 10.9886 67.1355 9.92753 67.1355 8.16368L67.1344 8.15902ZM51.0085 0.403247C50.7213 0.403247 50.4459 0.519222 50.2428 0.725662C50.0397 0.932101 49.9256 1.21209 49.9256 1.50404C49.9256 1.79599 50.0397 2.07598 50.2428 2.28242C50.4459 2.48886 50.7213 2.60484 51.0085 2.60484C51.2957 2.60484 51.5711 2.48886 51.7742 2.28242C51.9773 2.07598 52.0914 1.79599 52.0914 1.50404C52.0914 1.21209 51.9773 0.932101 51.7742 0.725662C51.5711 0.519222 51.2957 0.403247 51.0085 0.403247ZM48.7199 8.12049C48.7199 10.7283 47.1122 12.3988 44.9304 12.3988C43.8246 12.3988 42.9496 11.9155 42.3961 11.1661C42.2861 11.025 42.1982 10.8675 42.1354 10.6991V12.2295H40.4876V0.465115H42.2388V5.33757C42.8072 4.33833 43.8464 3.85389 44.9109 3.85389C47.0146 3.85389 48.7199 5.43563 48.7199 8.12049ZM46.9848 8.15201C46.9848 6.41852 46.0167 5.41928 44.5882 5.41928C43.1597 5.41928 42.2227 6.34148 42.2227 8.15201C42.2227 9.96255 43.2056 10.9163 44.6192 10.9163C46.0328 10.9163 46.9848 9.78745 46.9848 8.14734V8.15201ZM57.4896 7.66874L56.1541 7.2625C55.3503 7.02904 55.0942 6.66833 55.0942 6.16871C55.0942 5.52901 55.6006 5.20099 56.3069 5.20099C57.291 5.20099 57.7204 5.81034 57.8582 6.46638L59.3798 5.99945C59.2259 4.98503 58.2119 3.82937 56.4297 3.82937C54.7865 3.82937 53.4349 4.68853 53.4349 6.2656C53.4349 7.54967 54.2181 8.35746 55.5237 8.73218L56.8753 9.12207C57.5826 9.32518 57.8123 9.60651 57.8123 10.091C57.8123 10.6524 57.3369 11.1054 56.4917 11.1054C55.371 11.1054 54.7865 10.4493 54.6487 9.63803L53.1122 10.0746C53.358 11.4334 54.4339 12.4957 56.3999 12.4957C58.166 12.4957 59.5486 11.5268 59.5486 9.91936C59.5486 8.64696 58.7493 8.03878 57.4896 7.66407V7.66874ZM37.154 2.37021H38.9511V2.40056L37.4583 5.13329C37.8155 5.6491 38.0036 6.26634 37.9957 6.89713C37.9957 8.73918 36.705 10.0664 34.8952 10.0664C34.4761 10.0689 34.06 9.99499 33.6665 9.84815L33.6527 9.86332C33.4627 10.0712 33.3583 10.3453 33.3611 10.6291C33.3611 11.3633 34.1132 11.4404 34.7127 11.4404C35.7105 11.4404 35.8334 11.3937 36.4351 11.3937C37.3538 11.3937 38.6307 11.5501 38.6307 13.0023C38.6307 14.7194 36.9725 16 34.6839 16C33.6861 16 32.6411 15.8121 31.8418 15.2996L31.8728 13.1447H32.0577C32.5791 14.1288 33.8239 14.9716 35.4062 14.9716C36.4811 14.9716 37.5249 14.6751 37.5249 13.6607C37.5249 12.8167 36.7877 12.6299 35.8667 12.6299C35.1134 12.6299 34.8068 12.6451 34.1925 12.6451C33.2095 12.6451 32.3804 12.3171 32.3804 11.256C32.3804 10.6781 32.749 10.2054 33.2095 9.67889L33.2244 9.66371C32.3058 9.13257 31.7316 8.16485 31.7316 6.9625C31.7316 5.1508 33.0062 3.83988 34.8803 3.83988C35.7297 3.83251 36.5471 4.16843 37.1528 4.77375L37.154 2.37021ZM36.5706 7.03954C36.5706 5.54069 35.9414 4.71421 34.8045 4.71421C33.7446 4.71421 33.1613 5.46364 33.1613 6.82125C33.1613 8.38314 33.7906 9.25748 34.9423 9.25748C35.9873 9.25631 36.5706 8.46019 36.5706 7.03837V7.03954Z" fill="#001524"/>
</svg>
